<?xml version="1.0" standalone="no"?>
<!DOCTYPE svg PUBLIC "-//W3C//DTD SVG 20010904//EN"
 "http://www.w3.org/TR/2001/REC-SVG-20010904/DTD/svg10.dtd">
<svg version="1.0" xmlns="http://www.w3.org/2000/svg"
 width="1210.000000pt" height="806.000000pt" viewBox="0 0 1210.000000 806.000000"
 preserveAspectRatio="xMidYMid meet">

<g transform="translate(0.000000,806.000000) scale(0.100000,-0.100000)"
fill="#000000" stroke="none">
<path d="M0 4030 l0 -4030 6050 0 6050 0 0 4030 0 4030 -6050 0 -6050 0 0
-4030z m4560 -158 c0 -4 -9 -8 -20 -9 -11 -1 -18 2 -15 8 7 11 35 12 35 1z
m-55 -41 c0 -16 -3 -27 -7 -24 -13 7 -7 53 6 53 1 0 1 -13 1 -29z m32 -28
c-16 -16 -17 -16 -17 3 0 11 3 24 7 28 4 3 11 2 17 -4 7 -7 5 -16 -7 -27z
m-70 -33 c2 -11 -2 -20 -7 -20 -6 0 -10 7 -10 15 0 8 -8 15 -17 16 -15 0 -15
2 2 8 23 10 28 7 32 -19z m113 25 c0 -2 -14 -12 -30 -20 -31 -16 -50 -13 -50
8 0 9 3 8 8 -1 7 -10 14 -10 38 3 32 16 34 17 34 10z m-124 -83 c-18 -16 -18
-16 -6 6 6 13 14 21 18 18 3 -4 -2 -14 -12 -24z m-558 -286 c-2 -18 -9 -31
-17 -31 -23 0 -34 29 -27 71 l8 39 19 -24 c13 -15 19 -36 17 -55z m-130 6 c17
-11 34 -72 20 -72 -6 0 -9 -3 -5 -6 3 -4 -1 -13 -10 -22 -14 -15 -17 -14 -34
7 -18 23 -26 81 -12 94 9 9 25 9 41 -1z m-120 -114 c-2 -14 -11 -24 -24 -26
-18 -3 -21 1 -17 22 7 34 46 37 41 4z m-247 -98 c5 0 9 -12 9 -26 0 -21 -4
-25 -22 -22 -17 2 -24 11 -26 32 -3 23 0 28 13 22 9 -3 21 -6 26 -6z"/>
</g>
</svg>
